:FULLY-SPECIFIED
:DEGREES
2494
root 7.73169 16.6716 -2.75425 7230.13 -95.8855 -7216.89
lowerback -1.31956 0.875164 -5.39093
upperback 1.46433 1.29338 -1.28972
thorax 2.15942 0.558078 1.73186
lowerneck -16.5597 -7.55001 -5.3529
upperneck 29.0132 -12.0734 6.25733
head 13.2323 -5.32086 1.2751
rclavicle 9.54166e-015 5.96354e-015
rhumerus -20.4016 4.29609 -88.057
rradius 36.7297
rwrist 19.5232
rhand -21.8465 -10.3603
rfingers 7.12502
rthumb 4.55694 -40.2912
lclavicle 9.54166e-015 5.96354e-015
lhumerus -34.8264 -4.21364 86.0221
lradius 25.1485
lwrist 0.559653
lhand -20.4383 6.27228
lfingers 7.12502
lthumb 5.91671 36.1697
rfemur -28.456 -4.02157 15.3157
rtibia 72.1007
rfoot 4.17782 4.16486
rtoes -12.8716
lfemur -33.4959 2.217 -26.4836
ltibia 32.2805
lfoot -10.3801 3.79226
ltoes -3.68934
2495
root 7.73971 16.693 -2.72847 7227.2 -95.6678 -7214.07
lowerback -1.21311 0.702729 -4.87743
upperback 1.45125 1.04541 -1.11107
thorax 2.1075 0.444581 1.62049
lowerneck -16.5398 -7.51859 -5.37147
upperneck 29.0383 -12.0147 6.20474
head 13.2311 -5.30617 1.26878
rclavicle 4.77083e-015 8.54774e-015
rhumerus -20.6892 3.97719 -88.0625
rradius 35.8267
rwrist 20.4972
rhand -21.1378 -10.0529
rfingers 7.12502
rthumb 5.24129 -39.968
lclavicle 4.77083e-015 8.54774e-015
lhumerus -34.5061 -4.79548 86.3237
lradius 25.8842
lwrist 1.17574
lhand -21.2856 6.28586
lfingers 7.12502
lthumb 5.09861 36.2045
rfemur -30.0861 -4.35924 15.7302
rtibia 72.8418
rfoot 3.69366 4.5837
rtoes -13.1897
lfemur -32.434 2.0785 -26.204
ltibia 32.2181
lfoot -10.9117 3.7107
ltoes -4.42663
2496
root 7.74823 16.715 -2.70531 7225.09 -95.4384 -7212.08
lowerback -1.10232 0.505355 -4.52592
upperback 1.44407 0.767794 -0.903182
thorax 2.05631 0.312806 1.62894
lowerneck -16.4884 -7.49702 -5.46005
upperneck 28.9924 -11.958 6.20781
head 13.2033 -5.29425 1.2965
rclavicle -7.95139e-016 1.51076e-014
rhumerus -20.9701 3.56197 -87.953
rradius 34.8532
rwrist 21.6461
rhand -20.4975 -9.44262
rfingers 7.12502
rthumb 5.85948 -39.3416
lclavicle -7.95139e-016 1.51076e-014
lhumerus -34.1072 -5.2435 86.5881
lradius 26.5612
lwrist 1.59436
lhand -22.1668 6.09926
lfingers 7.12502
lthumb 4.24765 36.0367
rfemur -31.666 -4.77916 16.0834
rtibia 73.306
rfoot 3.23108 5.15536
rtoes -12.6808
lfemur -31.3538 1.79475 -25.9821
ltibia 32.1376
lfoot -11.596 3.72304
ltoes -4.31212
2497
root 7.76017 16.7289 -2.68302 7223 -95.1465 -7210.12
lowerback -0.93782 0.292621 -4.1844
upperback 1.43011 0.467276 -0.673982
thorax 1.96787 0.169722 1.6643
lowerneck -16.4469 -7.48856 -5.52208
upperneck 28.9695 -11.907 6.13945
head 13.1798 -5.29012 1.29111
rclavicle -7.95139e-016 1.59028e-015
rhumerus -21.3102 3.05191 -87.7559
rradius 33.8759
rwrist 23.0832
rhand -20.1819 -8.88864
rfingers 7.12502
rthumb 6.16417 -38.779
lclavicle -7.95139e-016 1.59028e-015
lhumerus -33.7464 -5.76502 86.893
lradius 27.3419
lwrist 2.28225
lhand -23.0344 6.06785
lfingers 7.12502
lthumb 3.40985 36.0203
rfemur -33.1654 -5.16919 16.4894
rtibia 73.5143
rfoot 2.68564 5.76171
rtoes -12.8962
lfemur -30.3324 1.53173 -25.7832
ltibia 32.1802
lfoot -12.2408 3.63743
ltoes -4.645
2498
root 7.77402 16.7356 -2.66448 7222.4 -94.8872 -7209.62
lowerback -0.823329 0.0767072 -4.04888
upperback 1.42585 0.169725 -0.470233
thorax 1.91642 0.0236357 1.78998
lowerneck -16.6486 -7.49318 -5.51011
upperneck 29.1083 -11.8863 6.00995
head 13.2674 -5.28795 1.23425
rclavicle -2.38542e-015 8.94531e-016
rhumerus -21.7109 2.80747 -87.606
rradius 33.2249
rwrist 23.5516
rhand -19.6282 -8.98039
rfingers 7.12502
rthumb 6.69878 -38.8544
lclavicle -2.38542e-015 8.94531e-016
lhumerus -33.289 -6.18931 87.1302
lradius 28.0937
lwrist 2.84718
lhand -23.9068 5.90365
lfingers 7.12502
lthumb 2.56735 35.8679
rfemur -34.7114 -5.51992 16.7663
rtibia 73.5149
rfoot 2.18201 6.36319
rtoes -12.4171
lfemur -29.3849 1.25929 -25.7403
ltibia 32.1888
lfoot -12.8337 3.53748
ltoes -4.466
2499
root 7.78803 16.73 -2.64698 7221.24 -94.5538 -7208.58
lowerback -0.669303 -0.155872 -3.87262
upperback 1.4229 -0.152607 -0.227968
thorax 1.84638 -0.134327 1.93263
lowerneck -16.4912 -7.50278 -5.72144
upperneck 28.9491 -11.8663 6.12944
head 13.1908 -5.29484 1.32485
rclavicle -1.19271e-014 5.2181e-015
rhumerus -22.1838 2.56837 -87.3928
rradius 32.6319
rwrist 23.8759
rhand -19.3204 -9.03153
rfingers 7.12502
rthumb 6.99585 -38.8959
lclavicle -1.19271e-014 5.2181e-015
lhumerus -32.8409 -6.59101 87.3533
lradius 28.9081
lwrist 3.37824
lhand -24.7695 5.78942
lfingers 7.12502
lthumb 1.73418 35.7621
rfemur -36.1693 -5.92086 17.1541
rtibia 73.2869
rfoot 1.55256 6.99215
rtoes -12.6985
lfemur -28.4333 0.962909 -25.6515
ltibia 32.2415
lfoot -13.4021 3.46564
ltoes -4.5955
2500
root 7.80322 16.731 -2.63021 7223.39 -94.3004 -7210.73
lowerback -0.664587 -0.407105 -3.97768
upperback 1.42265 -0.487811 -0.0555877
thorax 1.86719 -0.304473 2.16089
lowerneck -16.6062 -7.4976 -5.74123
upperneck 28.9327 -11.827 6.07712
head 13.2024 -5.28235 1.31067
rclavicle -3.97569e-015 1.0958e-014
rhumerus -22.5352 2.15276 -87.1338
rradius 31.9266
rwrist 24.3647
rhand -19.0928 -9.00081
rfingers 7.12502
rthumb 7.21555 -38.8578
lclavicle -3.97569e-015 1.0958e-014
lhumerus -32.3217 -7.03478 87.5498
lradius 29.759
lwrist 4.0237
lhand -25.5431 5.80301
lfingers 7.12502
lthumb 0.98703 35.7805
rfemur -37.6815 -6.35422 17.2841
rtibia 72.8124
rfoot 0.905566 7.59018
rtoes -12.3953
lfemur -27.5664 0.571693 -25.8405
ltibia 32.264
lfoot -14.0213 3.49621
ltoes -4.84901
